<svg xmlns="http://www.w3.org/2000/svg" width="41.766" height="41.766" viewBox="0 0 41.766 41.766"><g transform="translate(0)"><path d="M550.054,163.71v3.929h-4.595v5.324h4.595v13.658h5.514v-13.69h5.292v-5.324h-5.292v-3.391c0-1.552.444-2.6,2.662-2.6h2.821v-4.975h-4.12C552.843,156.644,550.054,159.147,550.054,163.71Z" transform="translate(-532.372 -150.749)" fill="#70b125"/><g transform="translate(0)"><path d="M547.815,190.066A20.883,20.883,0,1,1,568.7,169.183,20.906,20.906,0,0,1,547.815,190.066Zm0-40.815a19.932,19.932,0,1,0,19.933,19.932A19.955,19.955,0,0,0,547.815,149.251Z" transform="translate(-526.933 -148.3)" fill="#70b125"/></g></g></svg>