<svg width="42" height="42" viewBox="0 0 42 42" fill="none" xmlns="http://www.w3.org/2000/svg">
<g clip-path="url(#clip0_1003_54)">
<path d="M20.8672 41.77C9.38131 41.77 0 32.3887 0 20.8672C0 9.34564 9.38131 0 20.8672 0C32.3887 0 41.7343 9.38131 41.7343 20.8672C41.7343 32.353 32.3887 41.77 20.8672 41.77ZM20.8672 0.9631C9.88069 0.9631 0.9631 9.88069 0.9631 20.8672C0.9631 31.8536 9.91636 40.8069 20.9028 40.8069C31.8893 40.8069 40.8426 31.8536 40.8426 20.8672C40.8069 9.88069 31.8893 0.9631 20.8672 0.9631Z" fill="#70B125"/>
<path d="M29.4993 14.8745C27.3234 14.7675 25.6469 13.1267 25.5756 10.9508C25.5756 10.5941 25.4329 10.3087 25.1119 10.166C23.8991 10.166 22.6506 10.166 21.4378 10.166C21.0811 10.3444 20.9741 10.5941 20.9741 10.9864C20.9741 15.4809 20.9741 19.9397 20.9741 24.4342C20.9741 24.6839 20.9385 24.9692 20.9028 25.1832C20.5817 26.3604 19.4046 27.1451 18.1562 26.9311C16.9434 26.7171 16.0873 25.5756 16.1943 24.3628C16.3013 23.15 17.2644 22.2226 18.5129 22.1869C18.9409 22.1869 19.1906 21.9372 19.1906 21.5449C19.1906 20.4391 19.1906 19.2976 19.1906 18.1918C19.1906 17.7995 18.9052 17.5498 18.5485 17.5498C18.1205 17.5855 17.6924 17.5855 17.2644 17.6568C13.2337 18.4415 10.7011 22.508 11.7712 26.396C12.7699 30.0344 16.337 32.1746 20.0467 31.4256C23.15 30.7835 25.5043 27.9655 25.5399 24.7909C25.5756 22.7933 25.5399 20.7601 25.5399 18.7626C25.5399 18.6912 25.5399 18.6199 25.5399 18.5129C25.6469 18.5486 25.6826 18.5842 25.754 18.6199C26.9311 19.1906 28.1795 19.5117 29.4637 19.5117C29.9987 19.5117 30.2484 19.262 30.2484 18.7626C30.2484 17.7281 30.2484 16.7294 30.2484 15.6949C30.2484 15.1242 30.0344 14.9102 29.4993 14.8745Z" fill="#70B125"/>
</g>
<defs>
<clipPath id="clip0_1003_54">
<rect width="41.77" height="41.77" fill="white"/>
</clipPath>
</defs>
</svg>
