<svg xmlns="http://www.w3.org/2000/svg" width="41.766" height="41.766" viewBox="0 0 41.766 41.766"><g transform="translate(0)"><g transform="translate(0 0)"><path d="M547.815,423.529A20.883,20.883,0,1,1,568.7,402.646,20.906,20.906,0,0,1,547.815,423.529Zm0-40.815a19.932,19.932,0,1,0,19.933,19.932A19.955,19.955,0,0,0,547.815,382.714Z" transform="translate(-526.933 -381.763)" fill="#70b125"/></g><g transform="translate(9.035 8.442)"><path d="M551.8,393.713a11.975,11.975,0,0,0-10.375,17.952l-1.7,6.2,6.347-1.664a11.975,11.975,0,0,0,5.722,1.457h0a11.974,11.974,0,1,0,0-23.947Zm0,21.926h0a9.94,9.94,0,0,1-5.065-1.387l-.364-.215-3.766.988,1.005-3.671-.237-.377a9.952,9.952,0,1,1,8.43,4.662Z" transform="translate(-539.723 -393.713)" fill="#70b125"/><path d="M559.745,410.865c-.3-.15-1.77-.874-2.044-.973s-.474-.15-.673.149-.773.973-.947,1.173-.349.225-.648.075a8.175,8.175,0,0,1-2.406-1.484,9.017,9.017,0,0,1-1.664-2.072c-.174-.3,0-.446.131-.61a8.592,8.592,0,0,0,.748-1.023.551.551,0,0,0-.025-.524c-.075-.149-.673-1.621-.923-2.22-.242-.584-.489-.5-.673-.514s-.374-.01-.574-.01a1.1,1.1,0,0,0-.8.374,3.355,3.355,0,0,0-1.047,2.5,5.817,5.817,0,0,0,1.221,3.094,13.34,13.34,0,0,0,5.11,4.516,17.207,17.207,0,0,0,1.706.63,4.1,4.1,0,0,0,1.884.119,3.082,3.082,0,0,0,2.019-1.423,2.5,2.5,0,0,0,.174-1.422C560.244,411.089,560.044,411.014,559.745,410.865Z" transform="translate(-542.212 -396.39)" fill="#70b125"/></g></g></svg>