<svg xmlns="http://www.w3.org/2000/svg" width="496.27" height="139.45" viewBox="0 0 496.27 139.45"><g transform="translate(-27.84 -22.66)"><path d="M394.18,40.96c-21.03,0-38.15,18.14-38.15,40.44v37.75a2.548,2.548,0,0,0,2.55,2.55l11.09.01a2.546,2.546,0,0,0,2.55-2.57l-.26-37.74c0-13.51,9.96-24.5,22.21-24.5s22.21,10.99,22.21,24.5v37.74a2.548,2.548,0,0,0,2.55,2.55h11.05a2.55,2.55,0,0,0,2.55-2.56l-.21-37.72C432.32,59.1,415.21,40.96,394.18,40.96Z" fill="#292929"/><path d="M193.15,41.06l-11.09-.2a2.542,2.542,0,0,0-2.59,2.57l.26,38c0,13.51-9.96,24.5-22.21,24.5s-22.21-10.99-22.21-24.5V43.37a2.548,2.548,0,0,0-2.55-2.55H121.92a2.548,2.548,0,0,0-2.55,2.55V81.43c0,22.3,17.11,40.44,38.15,40.44s38.15-18.14,38.15-40.44V43.61A2.568,2.568,0,0,0,193.15,41.06Z" fill="#292929"/><path d="M320.79,45.35C284.63,28.15,249.08,63,264.92,99.13a36.553,36.553,0,0,0,18.86,18.76c14.92,6.48,29.57,4.21,40.45-3.22,1.1-.75,1.79-1.23,1.79-1.23l-.03,5.69a2.544,2.544,0,0,0,2.55,2.56l10.84.01a2.548,2.548,0,0,0,2.55-2.55V79.46A37.647,37.647,0,0,0,320.79,45.35ZM288,101.77a20.593,20.593,0,0,1-7.02-7.02c-13.83-23,11-47.83,34.01-34a20.593,20.593,0,0,1,7.02,7.02C335.83,90.77,311,115.59,288,101.77Z" fill="#292929"/><path d="M521.56,22.66H510.72a2.548,2.548,0,0,0-2.55,2.55v23.9A40.421,40.421,0,1,0,524.1,81.73h.01V25.21A2.554,2.554,0,0,0,521.56,22.66Zm-37.89,83.1a24.5,24.5,0,1,1,24.5-24.5A24.527,24.527,0,0,1,483.67,105.76Z" fill="#292929"/><path d="M255.4,40.82H208.87a2.548,2.548,0,0,0-2.55,2.55V54.21a2.548,2.548,0,0,0,2.55,2.55h15.3v62.41a2.548,2.548,0,0,0,2.55,2.55h10.84a2.548,2.548,0,0,0,2.55-2.55V56.76h15.3a2.548,2.548,0,0,0,2.55-2.55V43.37A2.576,2.576,0,0,0,255.4,40.82Z" fill="#292929"/><path d="M101.49,54.76l5.41-9.94a2.705,2.705,0,0,0-2.37-4H69.17c-21.18,0-39.45,15.93-41.19,37.04a40.443,40.443,0,1,0,73.69-19.37A3.538,3.538,0,0,1,101.49,54.76Zm-36.42,50.8A24.508,24.508,0,1,1,92.56,78.07,24.591,24.591,0,0,1,65.07,105.56Z" fill="#292929"/><path d="M106.02,121.71H95.72a2.545,2.545,0,0,0-2.53,2.33,25.073,25.073,0,0,1-24.93,22.71,24.772,24.772,0,0,1-12.1-3.14,2.562,2.562,0,0,0-3.51.98l-4.91,9.03a2.558,2.558,0,0,0,1.01,3.46,40.392,40.392,0,0,0,59.82-32.63A2.563,2.563,0,0,0,106.02,121.71Z" fill="#292929"/></g></svg>