<svg xmlns="http://www.w3.org/2000/svg" width="57.487" height="16" viewBox="0 0 57.487 16"><g transform="translate(20.976 2.42)"><path d="M1371.038,275.954H1367.8a2.846,2.846,0,0,0,.393,5.664,2.809,2.809,0,0,0,1.112-.225v1.336a1.112,1.112,0,0,1-2.223,0v-.375h-1.734v.375a2.846,2.846,0,0,0,5.692,0v-3.957a2.832,2.832,0,0,0-.382-1.425,1.6,1.6,0,0,0,.382-1.045Zm-1.463,2.819a1.383,1.383,0,1,1-1.383-1.383A1.385,1.385,0,0,1,1369.575,278.773Z" transform="translate(-1365.346 -274.417)" fill="#545454"/><path d="M1798.632,226.644v-2.85h-.718v-1.459h.718V220.8h1.706v1.537h1.414v1.459h-1.414v2.57c0,.393.168.584.55.584a1.735,1.735,0,0,0,.842-.213V228.1a2.515,2.515,0,0,1-1.347.348C1799.339,228.45,1798.632,228.035,1798.632,226.644Z" transform="translate(-1785.857 -220.797)" fill="#545454"/><path d="M1950.949,280.1v-.022c0-1.3,1-1.9,2.424-1.9a4.314,4.314,0,0,1,1.47.244v-.1c0-.7-.437-1.089-1.291-1.089a4.464,4.464,0,0,0-1.661.322l-.426-1.289a5.355,5.355,0,0,1,2.334-.478,2.8,2.8,0,0,1,2.031.667,2.58,2.58,0,0,1,.651,1.9v3.455h-1.65v-.644a2.324,2.324,0,0,1-1.818.755A1.854,1.854,0,0,1,1950.949,280.1Zm3.916-.389v-.3a2.668,2.668,0,0,0-1.089-.222c-.729,0-1.178.289-1.178.822v.022c0,.455.381.722.931.722C1954.327,280.757,1954.866,280.324,1954.866,279.713Z" transform="translate(-1934.627 -274.259)" fill="#545454"/><path d="M2164.775,275.8h1.706l0,.961a2.128,2.128,0,0,1,1.762-.965,1.972,1.972,0,0,1,2.042,2.233l0,3.786h-1.706l0-3.248c0-.808-.382-1.223-1.033-1.223s-1.066.415-1.066,1.223l0,3.248h-1.706Z" transform="translate(-2142.492 -274.259)" fill="#545454"/><path d="M2382.413,220.8v2.435a2.31,2.31,0,0,0-1.874-.9,2.819,2.819,0,0,0-2.738,3.108v.022a2.73,2.73,0,0,0,2.738,3,2.209,2.209,0,0,0,1.874-.976v.864h1.706V220.8Zm-1.453,6.028a1.383,1.383,0,1,1,1.383-1.383A1.385,1.385,0,0,1,2380.96,226.825Z" transform="translate(-2349.58 -220.797)" fill="#545454"/><path d="M1584.891,279.747v-3.793h1.706v3.255c0,.808.382,1.223,1.032,1.223s1.066-.315,1.066-1.123v-3.355h1.706v6.015H1588.7v-.853a2.056,2.056,0,0,1-1.762.864A1.972,1.972,0,0,1,1584.891,279.747Z" transform="translate(-1578.772 -274.417)" fill="#545454"/><rect width="1.545" height="1.545" transform="translate(34.966 6.006)" fill="#545454"/></g><g transform="translate(0 0)"><path d="M622.206,117.239h-4.734a4.7,4.7,0,1,0,3.8,1.885A2.363,2.363,0,0,0,622.206,117.239Zm-4.7,7.53a2.829,2.829,0,1,1,2.829-2.829A2.829,2.829,0,0,1,617.505,124.769Z" transform="translate(-612.804 -117.239)" fill="#545454"/><path d="M617.505,558.872a2.828,2.828,0,0,1-2.828-2.828H612.8a4.7,4.7,0,1,0,9.4,0h-1.873A2.829,2.829,0,0,1,617.505,558.872Z" transform="translate(-612.804 -544.745)" fill="#545454"/></g><rect width="0.399" height="14.536" transform="translate(14.912 0.732)" fill="#545454"/></svg>