<svg xmlns="http://www.w3.org/2000/svg" width="165" height="54.916" viewBox="0 0 165 54.916"><g transform="translate(-179 -1945.084)"><path d="M1411,1015l10-3.916v6.474Z" transform="translate(-1232 934)" fill="#4a7a12"/><rect width="160" height="51" transform="translate(179 1949)" fill="#70b125"/><text transform="translate(247 1964)" fill="#fff" font-size="17" font-family="Bitter-Regular, Bitter"><tspan x="0" y="16">Obsequio</tspan></text><path d="M2111.08,1049.876l-3.6-1.285a4.218,4.218,0,0,0,1.458-4.316,4.386,4.386,0,0,0-7.116-2.181l-2.485,2.154-.491-3.23a4.376,4.376,0,0,0-6.881-2.815,4.249,4.249,0,0,0-1.712,4.24l-3.393-1.211a3.243,3.243,0,0,0-4.129,1.888l-1.469,3.958a1.048,1.048,0,0,0,.642,1.35l16.782,5.991h-16.2a1.064,1.064,0,0,0-1.074,1.053v14.744a3.2,3.2,0,0,0,3.222,3.159h21.476a3.2,3.2,0,0,0,3.222-3.159v-12l.831.3a1.079,1.079,0,0,0,1.376-.63l1.469-3.958A3.147,3.147,0,0,0,2111.08,1049.876Zm-18.932,21.392h-7.516a1.065,1.065,0,0,1-1.074-1.053v-13.691h8.591Zm4.295,0H2094.3v-14.744h2.147Zm6.8-27.6a2.224,2.224,0,0,1,3.609,1.106,2.191,2.191,0,0,1-2.9,2.554l-3.492-1.247Zm-10.011-3.77a2.219,2.219,0,0,1,3.489,1.428l.551,3.618-3.492-1.247A2.159,2.159,0,0,1,2093.235,1039.9Zm.506,10.508-10.091-3.6,1.1-2.969a1.082,1.082,0,0,1,1.377-.63l9.081,3.242Zm4.037,1.441-2.019-.721,1.469-3.958,2.018.721Zm9.4,18.364a1.065,1.065,0,0,1-1.074,1.053h-7.516v-14.744h6l2.592.926Zm3.806-17.01-1.1,2.969-10.09-3.6,1.469-3.959,9.081,3.242A1.048,1.048,0,0,1,2110.987,1053.2Z" transform="translate(-1882.2 918.626)" fill="#fff"/></g></svg>