<svg xmlns="http://www.w3.org/2000/svg" width="193" height="65.028" viewBox="0 0 193 65.028"><g transform="translate(3556 -2895.517)"><g transform="translate(-3551.041 2895.517)"><path d="M3613.594,359.573a10.362,10.362,0,0,1-6.852-4.833l-.807-1.575,1.766-.11c5.822-.364,8.844,4.643,8.969,4.857l-1.993,1.178a7.586,7.586,0,0,0-.751-1Z" transform="translate(-3605.935 -353.037)" fill="#6da312"/></g><g transform="translate(-3556 2904.21)"><path d="M3616.515,386.611a13.741,13.741,0,1,1,12.288-19.2l-2.125.919a11.423,11.423,0,1,0,.03,9l2.131.907a13.773,13.773,0,0,1-12.325,8.368Z" transform="translate(-3602.461 -359.125)" fill="#49494c"/></g><g transform="translate(-3541.351 2897.818)"><path d="M3612.952,363.33l-.159-2.312a.422.422,0,0,0-.072.009c.334-.073,1.011-.728,1.183-2.684a28.169,28.169,0,0,0-.126-3.455l2.3-.24a30.086,30.086,0,0,1,.13,3.9C3615.814,363.082,3613.069,363.322,3612.952,363.33Z" transform="translate(-3612.722 -354.648)" fill="#49494c"/></g><path d="M3631.474,383.227h9.209v2.092h-11.777V359.672h2.568Z" transform="translate(-7147.149 2545.319)" fill="#49494c"/><path d="M3660.253,379.129h-11.668l-2.239,6.091h-2.715l9.356-25.317h2.9l9.319,25.317h-2.714Zm-.771-2.127-5.062-13.871L3649.354,377Z" transform="translate(-7140.851 2545.417)" fill="#49494c"/><path d="M3669.251,359.672v16.144q0,3.816,1.816,5.651a6.676,6.676,0,0,0,4.972,1.835,6.594,6.594,0,0,0,4.936-1.818q1.777-1.814,1.778-5.668V359.672h2.569v16.107q0,4.881-2.587,7.339a10.448,10.448,0,0,1-13.465,0q-2.587-2.456-2.587-7.339V359.672Z" transform="translate(-7130.99 2545.319)" fill="#49494c"/><path d="M3703.783,361.213a10.76,10.76,0,0,1,4.66,4.44,13.956,13.956,0,0,1,1.615,6.9,13.777,13.777,0,0,1-1.615,6.843,10.668,10.668,0,0,1-4.66,4.4,16.151,16.151,0,0,1-7.3,1.523h-7.595V359.672h7.595A16,16,0,0,1,3703.783,361.213Zm.862,19.172q2.808-2.808,2.807-7.834,0-5.063-2.807-7.907t-8.164-2.844h-5.027v21.392h5.027Q3701.838,383.192,3704.645,380.385Z" transform="translate(-7121.492 2545.319)" fill="#49494c"/><path d="M3714.738,359.672v25.647h-2.569V359.672Z" transform="translate(-7111.532 2545.319)" fill="#49494c"/><path d="M3738.582,379.129h-11.669l-2.237,6.091h-2.716l9.356-25.317h2.9l9.321,25.317h-2.716Zm-.771-2.127-5.062-13.871L3727.684,377Z" transform="translate(-7107.345 2545.417)" fill="#49494c"/><g transform="translate(-3555.26 2941.472)"><path d="M3607.729,403.069a9.144,9.144,0,0,1-3.47-3.4,10.1,10.1,0,0,1,0-9.84,9.061,9.061,0,0,1,3.47-3.39,10.131,10.131,0,0,1,9.616,0,8.978,8.978,0,0,1,3.442,3.39,10.189,10.189,0,0,1,0,9.84,9.035,9.035,0,0,1-3.455,3.4,10,10,0,0,1-9.6,0Zm7.927-4.866a5.834,5.834,0,0,0,0-6.952,4.475,4.475,0,0,0-6.265,0,5.91,5.91,0,0,0,0,6.965,4.459,4.459,0,0,0,6.265-.013Z" transform="translate(-3602.979 -385.223)" fill="#fff"/></g><g transform="translate(-3523.314 2941.761)"><path d="M3639.825,396.1a4.915,4.915,0,0,1-.672,6.582,7.041,7.041,0,0,1-4.59,1.345h-9.208v-18.6h8.918a7.1,7.1,0,0,1,4.472,1.266,4.42,4.42,0,0,1-1.518,7.783A4.378,4.378,0,0,1,3639.825,396.1Zm-9.3-3.285h2.611q1.953,0,1.952-1.608,0-1.664-1.952-1.663h-2.611Zm4.958,5.408a1.622,1.622,0,0,0-.514-1.292,2.161,2.161,0,0,0-1.463-.448h-2.981v3.377h3.007Q3635.487,399.856,3635.485,398.22Z" transform="translate(-3625.354 -385.426)" fill="#fff"/></g><g transform="translate(-3495.06 2941.761)"><path d="M3654.562,404.024l-3.692-6.859h-.555v6.859h-5.17v-18.6h8.151a8.44,8.44,0,0,1,3.8.778,5.441,5.441,0,0,1,2.347,2.137,5.93,5.93,0,0,1,.792,3.047,5.537,5.537,0,0,1-1.042,3.337,5.625,5.625,0,0,1-3.046,2.045l4.195,7.254Zm-4.248-10.393h2.56a2.214,2.214,0,0,0,1.582-.5,1.9,1.9,0,0,0,.528-1.451,1.863,1.863,0,0,0-.541-1.412,2.193,2.193,0,0,0-1.569-.514h-2.56Z" transform="translate(-3645.144 -385.426)" fill="#fff"/></g><g transform="translate(-3467.07 2941.761)"><path d="M3669.917,389.568V392.6h5.937v3.931h-5.937v3.35h6.728v4.142h-11.9v-18.6h11.9v4.142Z" transform="translate(-3664.748 -385.426)" fill="#fff"/></g><g transform="translate(-3442.695 2941.577)"><path d="M3694.324,391.6a3,3,0,0,0-1.227-1.135,3.992,3.992,0,0,0-1.833-.4,3.9,3.9,0,0,0-3.074,1.266,4.952,4.952,0,0,0-1.121,3.4,5.076,5.076,0,0,0,1.2,3.652,4.612,4.612,0,0,0,3.5,1.254,3.988,3.988,0,0,0,3.878-2.453h-5.2v-3.721h9.656v5.013a9.5,9.5,0,0,1-1.781,2.77,9.141,9.141,0,0,1-2.968,2.125,9.623,9.623,0,0,1-4.089.831,9.969,9.969,0,0,1-4.947-1.2,8.337,8.337,0,0,1-3.324-3.35,10.844,10.844,0,0,1,0-9.814,8.369,8.369,0,0,1,3.311-3.35,9.9,9.9,0,0,1,4.933-1.2,9.535,9.535,0,0,1,5.8,1.688,7.17,7.17,0,0,1,2.85,4.617Z" transform="translate(-3681.82 -385.297)" fill="#fff"/></g><g transform="translate(-3412.172 2934.19)"><path d="M3707.947,405.25a9.123,9.123,0,0,1-3.469-3.4,10.1,10.1,0,0,1,0-9.84,9.039,9.039,0,0,1,3.469-3.39,10.128,10.128,0,0,1,9.615,0,8.986,8.986,0,0,1,3.443,3.39,10.2,10.2,0,0,1,0,9.84,9.049,9.049,0,0,1-3.457,3.4,10,10,0,0,1-9.6,0Zm7.927-4.866a5.842,5.842,0,0,0,0-6.952,4.474,4.474,0,0,0-6.265,0,5.908,5.908,0,0,0,0,6.965,4.458,4.458,0,0,0,6.265-.013Zm.091-16.357-6.595,2.586V383.1l6.595-2.981Z" transform="translate(-3703.198 -380.123)" fill="#fff"/></g><g transform="translate(-3380.226 2941.761)"><path d="M3742.8,404.024h-5.169l-6.886-10.393v10.393h-5.17v-18.6h5.17l6.886,10.526V385.426h5.169Z" transform="translate(-3725.573 -385.426)" fill="#fff"/></g></g></svg>