<svg xmlns="http://www.w3.org/2000/svg" width="21" height="21" viewBox="0 0 21 21"><g transform="translate(-379.323 -634.018)"><g transform="translate(379.323 634.018)"><path d="M389.823,655.018a10.5,10.5,0,1,1,10.5-10.5A10.512,10.512,0,0,1,389.823,655.018Zm0-19.617a9.117,9.117,0,1,0,9.118,9.117A9.128,9.128,0,0,0,389.823,635.4Z" transform="translate(-379.323 -634.018)" fill="#70b125"/></g><g transform="translate(385.399 638.222)"><path d="M407.45,649.682c0-.009-.006-.017-.009-.026a.474.474,0,0,0-.04-.093c-.006-.011-.012-.021-.018-.031a.465.465,0,0,0-.085-.1l-2.281-1.941a.475.475,0,0,0-.132-.077c-.014-.005-.028-.008-.042-.012a.476.476,0,0,0-.108-.019c-.008,0-.016,0-.025,0H399.09a.474.474,0,0,0-.473.473V659.5a.473.473,0,0,0,.473.473h7.9a.473.473,0,0,0,.473-.473v-9.7A.467.467,0,0,0,407.45,649.682Zm-2.266-.8.182.155.339.288h-.52Zm-.947-.551v1.467a.473.473,0,0,0,.473.473h1.807v8.758h-6.954v-10.7Z" transform="translate(-398.617 -647.38)" fill="#70b125"/><g transform="translate(1.324 3.019)"><path d="M405.484,657.893h-2.2a.473.473,0,1,1,0-.947h2.2a.473.473,0,1,1,0,.947Z" transform="translate(-402.811 -656.946)" fill="#70b125"/></g><g transform="translate(1.263 4.958)"><path d="M408.466,664.035H403.09a.473.473,0,0,1,0-.947h5.376a.473.473,0,1,1,0,.947Z" transform="translate(-402.617 -663.088)" fill="#70b125"/></g><g transform="translate(1.263 6.394)"><path d="M408.466,668.583H403.09a.473.473,0,0,1,0-.947h5.376a.473.473,0,1,1,0,.947Z" transform="translate(-402.617 -667.636)" fill="#70b125"/></g><g transform="translate(1.263 7.829)"><path d="M408.466,673.132H403.09a.473.473,0,0,1,0-.947h5.376a.473.473,0,1,1,0,.947Z" transform="translate(-402.617 -672.185)" fill="#70b125"/></g><g transform="translate(1.263 9.265)"><path d="M406.145,677.68H403.09a.473.473,0,0,1,0-.947h3.055a.473.473,0,1,1,0,.947Z" transform="translate(-402.617 -676.733)" fill="#70b125"/></g></g></g></svg>