<svg xmlns="http://www.w3.org/2000/svg" width="21" height="21" viewBox="0 0 21 21"><g transform="translate(-393.375 -634.018)"><g transform="translate(393.375 634.018)"><path d="M403.875,655.018a10.5,10.5,0,1,1,10.5-10.5A10.512,10.512,0,0,1,403.875,655.018Zm0-19.617a9.117,9.117,0,1,0,9.118,9.117A9.128,9.128,0,0,0,403.875,635.4Z" transform="translate(-393.375 -634.018)" fill="#70b125"/></g><g transform="translate(397.879 638.829)"><path d="M415.039,649.653a.4.4,0,0,0-.425.048L410.7,652.83h-1.869a.806.806,0,0,0-.8.8v3.217a.806.806,0,0,0,.8.8H410.7l3.911,3.129a.407.407,0,0,0,.252.088.4.4,0,0,0,.4-.4V650.015A.4.4,0,0,0,415.039,649.653Zm-4.6,7.2h-1.608v-3.217h1.608Zm4.021,2.782-3.217-2.573v-3.634l3.217-2.573Z" transform="translate(-408.028 -649.613)" fill="#70b125"/><g transform="translate(8.589 2.67)"><path d="M435.448,658.04a.4.4,0,1,0-.565.572,3.212,3.212,0,0,1,0,4.544.4.4,0,1,0,.565.571,4.015,4.015,0,0,0,0-5.687Z" transform="translate(-434.763 -657.924)" fill="#70b125"/></g><g transform="translate(9.723 1.537)"><path d="M438.978,654.513a.4.4,0,1,0-.566.571,4.8,4.8,0,0,1,0,6.812.4.4,0,0,0,.566.571,5.605,5.605,0,0,0,0-7.954Z" transform="translate(-438.293 -654.396)" fill="#70b125"/></g></g></g></svg>