<svg xmlns="http://www.w3.org/2000/svg" xmlns:xlink="http://www.w3.org/1999/xlink" width="30" height="30" viewBox="0 0 30 30"><defs><clipPath id="a"><path d="M2,20a2,2,0,0,1-2-2V4A2,2,0,0,1,2,2H4V4H2V7H18V4H16V2h2a2,2,0,0,1,2,2V18a2,2,0,0,1-2,2Zm0-2H18V9H2Zm13-2V14h2v2Zm-4,0V14h2v2ZM7,16V14H9v2ZM3,16V14H5v2Zm12-4V10h2v2Zm-4,0V10h2v2ZM7,12V10H9v2Zm6-8V1a1,1,0,0,1,2,0V4a1,1,0,1,1-2,0ZM5,4V1A1,1,0,0,1,7,1V4A1,1,0,1,1,5,4ZM8,4V2h4V4Z" transform="translate(5 5)" fill="#70b125"/></clipPath></defs><path d="M0,0H30V30H0Z" fill="none"/><path d="M2,20a2,2,0,0,1-2-2V4A2,2,0,0,1,2,2H4V4H2V7H18V4H16V2h2a2,2,0,0,1,2,2V18a2,2,0,0,1-2,2Zm0-2H18V9H2Zm13-2V14h2v2Zm-4,0V14h2v2ZM7,16V14H9v2ZM3,16V14H5v2Zm12-4V10h2v2Zm-4,0V10h2v2ZM7,12V10H9v2Zm6-8V1a1,1,0,0,1,2,0V4a1,1,0,1,1-2,0ZM5,4V1A1,1,0,0,1,7,1V4A1,1,0,1,1,5,4ZM8,4V2h4V4Z" transform="translate(5 5)" fill="#70b125"/><g clip-path="url(#a)"><path d="M0,0H30V30H0Z" fill="#70b125"/></g></svg>