<svg xmlns="http://www.w3.org/2000/svg" width="689.44" height="452.442" viewBox="0 0 689.44 452.442"><g transform="translate(227.431 -266.783)"><g transform="translate(-227.431 266.783)"><path d="M-148.991,561.288q-20.287,0-34.882-7.3A53.451,53.451,0,0,1-206.585,532.9q-8.934-11.353-13.382-30.014a159.667,159.667,0,0,1-4.464-37.315,143.237,143.237,0,0,1,20.686-75.033q20.684-34.469,64.486-54.754l7.3,14.6q-22.719,9.734-40.558,30.011-17.855,20.287-21.093,41.368a72.285,72.285,0,0,0,0,34.071q17.835-19.468,47.047-19.468,28.388,0,46.239,16.629,17.83,16.633,17.843,45.829,0,28.408-19.061,45.425Q-120.608,561.289-148.991,561.288Zm167.1,0q-20.287,0-34.882-7.3A53.451,53.451,0,0,1-39.483,532.9q-8.939-11.353-13.386-30.014A159.659,159.659,0,0,1-57.33,465.57a143.237,143.237,0,0,1,20.686-75.033q20.684-34.469,64.486-54.754l7.3,14.6Q12.423,360.12-5.415,380.4-23.27,400.685-26.5,421.766a72.284,72.284,0,0,0,0,34.071q17.83-19.468,47.047-19.468,28.383,0,46.236,16.629,17.835,16.633,17.846,45.829,0,28.408-19.064,45.425Q46.495,561.289,18.11,561.288Z" transform="translate(224.431 -335.783)" fill="#e8e8e8"/></g><path d="M-43.154,337.039q20.263,0,34.879,7.3a53.546,53.546,0,0,1,22.711,21.089q8.92,11.372,13.386,30.014a160.487,160.487,0,0,1,4.461,37.311A143.152,143.152,0,0,1,11.6,507.787Q-9.089,542.28-52.89,562.544l-7.3-14.6q22.7-9.734,40.561-30.011,17.83-20.268,21.09-41.372a72.693,72.693,0,0,0,0-34.068q-17.855,19.468-47.05,19.468-28.4,0-46.236-16.629-17.85-16.614-17.843-45.832,0-28.383,19.061-45.422T-43.154,337.039Zm167.1,0q20.267,0,34.882,7.3a53.564,53.564,0,0,1,22.711,21.089q8.92,11.372,13.386,30.014a160.486,160.486,0,0,1,4.461,37.311A143.125,143.125,0,0,1,178.7,507.787q-20.684,34.493-64.486,54.757l-7.3-14.6q22.7-9.734,40.558-30.011,17.835-20.268,21.09-41.372a72.609,72.609,0,0,0,0-34.068q-17.85,19.468-47.047,19.468-28.4,0-46.236-16.629Q57.421,428.715,57.429,399.5q0-28.383,19.064-45.422T123.944,337.039Z" transform="translate(262.625 156.68)" fill="#e8e8e8"/></g></svg>