<svg xmlns="http://www.w3.org/2000/svg" width="29.207" height="29.208" viewBox="0 0 29.207 29.208"><path d="M548.672,161.586v2.748h-3.213v3.723h3.213v9.551h3.856v-9.574h3.7v-3.723h-3.7V161.94c0-1.085.31-1.817,1.861-1.817h1.973v-3.479h-2.881C550.622,156.644,548.672,158.394,548.672,161.586Z" transform="translate(-536.307 -152.522)" fill="#70b125"/><g transform="translate(0)"><path d="M541.536,177.508a14.6,14.6,0,1,1,14.6-14.6A14.62,14.62,0,0,1,541.536,177.508Zm0-28.543A13.939,13.939,0,1,0,555.476,162.9,13.955,13.955,0,0,0,541.536,148.965Z" transform="translate(-526.933 -148.3)" fill="#70b125"/></g></svg>