<svg xmlns="http://www.w3.org/2000/svg" width="16.467" height="16.468" viewBox="0 0 16.467 16.468"><g transform="translate(-2181.109 -1054.839)"><path d="M2184.758,1070.37l-1.242,1.017-1.427,1.167a8.25,8.25,0,0,1-.061-7.689h0l1.347,1.1,1.336,1.093a4.915,4.915,0,0,0,.046,3.308Z" transform="translate(0 -5.58)" fill="#fff" opacity="0.6"/><path d="M2207.99,1069.935a8.231,8.231,0,0,1-2.936,7.959h0l-1.41-1.155-1.272-1.041a4.909,4.909,0,0,0,2.112-2.506h-4.4v-3.257h7.909Z" transform="translate(-10.557 -8.4)" fill="#fff"/><path d="M2195.728,1081.979h0a8.236,8.236,0,0,1-12.407-2.519l2.668-2.184a4.9,4.9,0,0,0,7.057,2.507Z" transform="translate(-1.231 -12.485)" fill="#fff" opacity="0.8"/><path d="M2195.753,1056.735l-2.667,2.184a4.9,4.9,0,0,0-7.219,2.564l-2.682-2.2h0a8.235,8.235,0,0,1,12.569-2.552Z" transform="translate(-1.155)" fill="#fff" opacity="0.5"/></g></svg>