<svg xmlns="http://www.w3.org/2000/svg" width="41.766" height="41.766" viewBox="0 0 41.766 41.766"><g transform="translate(0)"><g transform="translate(9.396 9.396)"><path d="M546.864,101.7h10.267a6.337,6.337,0,0,0,6.338-6.338l.031-10.3a6.336,6.336,0,0,0-6.337-6.338h-10.3a6.336,6.336,0,0,0-6.337,6.338v10.3A6.336,6.336,0,0,0,546.864,101.7Zm-4.309-16.605a4.314,4.314,0,0,1,4.309-4.309h10.267a4.314,4.314,0,0,1,4.31,4.309l.032,10.267a4.315,4.315,0,0,1-4.31,4.31h-10.3a4.314,4.314,0,0,1-4.309-4.31Z" transform="translate(-540.527 -78.722)" fill="#707070"/><path d="M554.3,98.424a5.926,5.926,0,1,0-5.926-5.926A5.917,5.917,0,0,0,554.3,98.424Zm0-9.76a3.841,3.841,0,0,1,3.866,3.866,3.866,3.866,0,1,1-3.866-3.866Z" transform="translate(-542.831 -81.026)" fill="#707070"/><path d="M564.893,87.173a1.516,1.516,0,1,0-1.046-.444A1.491,1.491,0,0,0,564.893,87.173Z" transform="translate(-547.243 -80.329)" fill="#707070"/></g><g transform="translate(0 0)"><path d="M548.109,107.188A20.883,20.883,0,1,1,568.993,86.3,20.906,20.906,0,0,1,548.109,107.188Zm0-40.815A19.932,19.932,0,1,0,568.042,86.3,19.955,19.955,0,0,0,548.109,66.373Z" transform="translate(-527.227 -65.422)" fill="#707070"/></g></g></svg>