<svg xmlns="http://www.w3.org/2000/svg" width="29.207" height="29.208" viewBox="0 0 29.207 29.208"><g transform="translate(6.57 6.57)"><path d="M544.959,94.789h7.18a4.432,4.432,0,0,0,4.432-4.432l.022-7.2a4.431,4.431,0,0,0-4.432-4.432h-7.2a4.431,4.431,0,0,0-4.432,4.432v7.2A4.431,4.431,0,0,0,544.959,94.789Zm-3.013-11.612a3.017,3.017,0,0,1,3.013-3.014h7.18a3.017,3.017,0,0,1,3.014,3.014l.022,7.18a3.017,3.017,0,0,1-3.014,3.014h-7.2a3.017,3.017,0,0,1-3.013-3.014Z" transform="translate(-540.527 -78.722)" fill="#70b125"/><path d="M552.521,94.86a4.144,4.144,0,1,0-4.144-4.144A4.138,4.138,0,0,0,552.521,94.86Zm0-6.825a2.686,2.686,0,0,1,2.7,2.7,2.7,2.7,0,1,1-2.7-2.7Z" transform="translate(-544.499 -82.694)" fill="#70b125"/><path d="M564.445,86.278a1.06,1.06,0,1,0-.731-.31A1.043,1.043,0,0,0,564.445,86.278Z" transform="translate(-552.102 -81.491)" fill="#70b125"/></g><g transform="translate(0 0)"><path d="M541.83,94.63a14.6,14.6,0,1,1,14.6-14.6A14.62,14.62,0,0,1,541.83,94.63Zm0-28.543A13.939,13.939,0,1,0,555.77,80.026,13.955,13.955,0,0,0,541.83,66.087Z" transform="translate(-527.227 -65.422)" fill="#70b125"/></g></svg>