<svg xmlns="http://www.w3.org/2000/svg" width="62" height="70" viewBox="0 0 62 70"><g transform="translate(-19.329)"><path d="M23.758,0H61.385L81.329,19.626v46A4.4,4.4,0,0,1,76.9,70H23.758a4.4,4.4,0,0,1-4.429-4.375V4.375A4.4,4.4,0,0,1,23.758,0Z" transform="translate(0)" fill="#e2574c"/><path d="M222.849,20.1H207.392a4.436,4.436,0,0,1-4.435-4.435V.193Z" transform="translate(-141.584 -0.149)" fill="#b53629"/><path d="M116.986,137.972a1.289,1.289,0,0,0,0-2.552h-4.231a1.322,1.322,0,0,0-1.288,1.441v10.4c0,.927.528,1.441,1.242,1.441s1.24-.514,1.24-1.441V144.4h2.559a1.2,1.2,0,0,0,1.191-1.295,1.179,1.179,0,0,0-1.191-1.26h-2.559v-3.878Zm-14.3-2.552h-3.1a1.369,1.369,0,0,0-1.437,1.432v10.415a1.364,1.364,0,0,0,1.472,1.395h3.249a6.025,6.025,0,0,0,6.384-6.435C109.256,138.1,106.866,135.42,102.686,135.42Zm.149,10.674h-1.887v-8.107h1.7c2.574,0,3.694,1.727,3.694,4.111C106.342,144.329,105.242,146.094,102.835,146.094ZM91.495,135.42H88.428a1.29,1.29,0,0,0-1.35,1.441v10.4a1.306,1.306,0,1,0,2.6,0v-3.036H91.6a4.2,4.2,0,0,0,4.33-4.384A4.247,4.247,0,0,0,91.495,135.42Zm-.051,6.364H89.677v-3.923h1.767a1.97,1.97,0,0,1,0,3.923Z" transform="translate(-52.248 -104.865)" fill="#fff"/></g></svg>