<svg xmlns="http://www.w3.org/2000/svg" width="56" height="56" viewBox="0 0 56 56"><g transform="translate(-3070.84 17799.16)"><circle cx="28" cy="28" r="28" transform="translate(3070.84 -17799.16)" fill="#fff"/><g transform="translate(3088.654 -17781.346)"><g transform="translate(0 0)"><path d="M1912.86,1121.514a4.124,4.124,0,0,0-5.834,0l-11.53,11.53a.8.8,0,0,0-.206.354l-1.812,6.506a.806.806,0,0,0,1,.991l6.506-1.849a.8.8,0,0,0,.35-1.343l-4.1-4.114,9.557-9.557,3.555,3.554-7.317,7.3a.806.806,0,1,0,1.138,1.141l8.7-8.675a4.125,4.125,0,0,0,0-5.834Zm-13.636,16.356-3.809,1.082,1.066-3.832Zm12.5-11.662-.241.239-3.556-3.556.239-.24a2.515,2.515,0,0,1,3.557,3.556Z" transform="translate(-1893.449 -1120.305)" fill="#70b125"/></g></g></g></svg>