<svg xmlns="http://www.w3.org/2000/svg" width="29.111" height="29.111" viewBox="0 0 29.111 29.111"><g transform="translate(-610.395 -64.057)"><g transform="translate(610.395 64.057)"><path d="M639.234,88.773c-.293-.357-1.739-2.1-2.029-2.375s-.513-.455-.933-.19-1.521.792-1.853.945-.566.086-.858-.27a11.27,11.27,0,0,1-2.2-3.223,12.43,12.43,0,0,1-.932-3.546c-.052-.475.249-.563.509-.7a11.763,11.763,0,0,0,1.518-.868.76.76,0,0,0,.263-.675c-.01-.23.064-2.422.086-3.316.022-.872-.333-.91-.559-1.026s-.465-.223-.717-.335a1.516,1.516,0,0,0-1.216.023,4.63,4.63,0,0,0-2.722,2.555,8.025,8.025,0,0,0-.2,4.585c.076.336.847,5.244,3.9,8.564a23.885,23.885,0,0,0,1.8,1.753,5.666,5.666,0,0,0,2.308,1.209,4.253,4.253,0,0,0,3.344-.657,3.445,3.445,0,0,0,1.019-1.694C639.735,89.337,639.526,89.13,639.234,88.773Z" transform="translate(-618.896 -68.638)" fill="#70b125"/><path d="M624.951,93.168a14.556,14.556,0,1,1,14.556-14.556A14.572,14.572,0,0,1,624.951,93.168Zm0-28.449a13.893,13.893,0,1,0,13.893,13.893A13.909,13.909,0,0,0,624.951,64.719Z" transform="translate(-610.395 -64.057)" fill="#70b125"/></g></g></svg>