<svg width="25" height="25" viewBox="0 0 25 25" fill="none" xmlns="http://www.w3.org/2000/svg">
<g clip-path="url(#clip0_1009_1071)">
<path d="M12.4893 25C5.61486 25 0 19.3851 0 12.4893C0 5.59351 5.61486 0 12.4893 0C19.3851 0 24.9787 5.61486 24.9787 12.4893C24.9787 19.3638 19.3851 25 12.4893 25ZM12.4893 0.57643C5.91375 0.57643 0.57643 5.91375 0.57643 12.4893C0.57643 19.0649 5.9351 24.4236 12.5107 24.4236C19.0863 24.4236 24.4449 19.0649 24.4449 12.4893C24.4236 5.91375 19.0863 0.57643 12.4893 0.57643Z" fill="#70B125"/>
<path d="M17.6561 8.90307C16.3538 8.83902 15.3504 7.85695 15.3077 6.55465C15.3077 6.34115 15.2223 6.17036 15.0302 6.08496C14.3043 6.08496 13.5571 6.08496 12.8312 6.08496C12.6177 6.19171 12.5537 6.34115 12.5537 6.57599C12.5537 9.266 12.5537 11.9347 12.5537 14.6247C12.5537 14.7741 12.5323 14.9449 12.511 15.073C12.3188 15.7775 11.6143 16.2472 10.8671 16.1191C10.1412 15.991 9.6288 15.3078 9.69285 14.582C9.7569 13.8561 10.3333 13.301 11.0806 13.2797C11.3367 13.2797 11.4862 13.1302 11.4862 12.8954C11.4862 12.2336 11.4862 11.5504 11.4862 10.8885C11.4862 10.6537 11.3154 10.5043 11.1019 10.5043C10.8457 10.5256 10.5895 10.5256 10.3333 10.5683C7.92086 11.038 6.40506 13.4718 7.04554 15.7989C7.64332 17.9765 9.77825 19.2575 11.9986 18.8091C13.856 18.4248 15.265 16.7382 15.2864 14.8382C15.3077 13.6426 15.2864 12.4257 15.2864 11.2301C15.2864 11.1874 15.2864 11.1447 15.2864 11.0807C15.3504 11.102 15.3718 11.1234 15.4145 11.1447C16.119 11.4863 16.8662 11.6785 17.6348 11.6785C17.955 11.6785 18.1045 11.529 18.1045 11.2301C18.1045 10.611 18.1045 10.0132 18.1045 9.3941C18.1045 9.05251 17.9764 8.92441 17.6561 8.90307Z" fill="#70B125"/>
</g>
<defs>
<clipPath id="clip0_1009_1071">
<rect width="25" height="25" fill="white"/>
</clipPath>
</defs>
</svg>
