<svg xmlns="http://www.w3.org/2000/svg" width="60" height="60" viewBox="0 0 60 60"><g transform="translate(-885.156 -454.812)"><path d="M915,485.315a11.251,11.251,0,1,1,11.252-11.252A11.265,11.265,0,0,1,915,485.315Zm0-19.673a8.421,8.421,0,1,0,8.422,8.421A8.43,8.43,0,0,0,915,465.642Z" fill="#70b125"/><path d="M898.771,501.637a1.376,1.376,0,0,1-.593-1.409,17.081,17.081,0,0,1,33.644,0,1.358,1.358,0,0,1-.593,1.409C927.29,503.957,904.161,504.968,898.771,501.637Zm30.077-1.819a14.253,14.253,0,0,0-27.7,0C905.71,502.065,922.065,501.968,928.848,499.818Z" fill="#70b125"/><g transform="translate(885.156 454.812)" fill="none" stroke="#70b125" stroke-width="2"><circle cx="30" cy="30" r="30" stroke="none"/><circle cx="30" cy="30" r="29" fill="none"/></g></g></svg>