<svg xmlns="http://www.w3.org/2000/svg" width="21" height="21" viewBox="0 0 21 21"><g transform="translate(-1131 -1947.143)"><g transform="translate(1131 1947.143)"><g transform="translate(0 0)"><path d="M205.858,664.583a10.5,10.5,0,1,1,10.5-10.5A10.512,10.512,0,0,1,205.858,664.583Zm0-19.617a9.117,9.117,0,1,0,9.117,9.117A9.128,9.128,0,0,0,205.858,644.966Z" transform="translate(-195.358 -643.583)" fill="#70b125"/></g><g transform="translate(7.826 6.785)"><path d="M219.058,671a.712.712,0,0,1-.712-.712v-6.059a.712.712,0,0,1,1.035-.634l5.938,3.03a.712.712,0,0,1,0,1.268l-5.938,3.03A.711.711,0,0,1,219.058,671Zm.712-5.609v3.736l3.661-1.868Z" transform="translate(-218.346 -663.52)" fill="#70b125"/></g></g></g></svg>